<svg width="512" height="512" viewBox="0 0 512 512" fill="none" xmlns="http://www.w3.org/2000/svg">
<rect width="512" height="512" fill="#FBE98F"/>
<path d="M378.354 176.776C389.794 169.326 406.612 165.788 422.337 167.523C428.452 168.198 434.708 169.779 438.499 173.071C441.227 175.441 442.397 178.455 442.987 181.425C445.843 195.751 435.616 210.896 417.688 218.896C427.547 217.617 436.049 224.296 438.128 230.89C440.725 239.123 437.079 247.799 430.731 255.055C424.383 262.311 415.497 268.39 406.707 274.388C412.481 273.417 416.238 273.755 421.56 276.515C426.882 279.276 428.931 282.394 430.278 286.818C436.148 306.104 419.268 326.721 389.827 329.643C378.007 351.096 362.649 364.884 340.546 376.678C299.088 398.804 246.026 397.309 205.237 374.537C145.811 341.365 136.834 289.654 133.742 230.677C133.742 230.677 131.791 204.981 132.247 181.665C132.604 163.359 136.716 144.207 136.716 144.207C142.031 125.714 157.845 111.248 175.846 104.608C211.628 91.4109 256.138 113.205 266.037 150.142C270.044 165.093 269.224 179.76 268.536 195.531C281.3 191.639 291.589 190.632 308.01 191.734C321.893 192.669 333.969 196.974 344.061 204.204C343.52 200.003 343.1 196.62 343.1 196.62C341.992 187.685 348.704 178.727 356.622 175.084C363.029 172.136 371.325 172.874 376.299 177.874" fill="white"/>
<path d="M265.267 389.482C264.798 404.686 264.457 419.893 264.149 435.1C264.064 439.219 267.828 443.157 272.018 442.97C276.353 442.776 279.799 439.514 279.888 435.1C280.199 419.893 280.54 404.686 281.006 389.482C281.134 385.363 277.294 381.426 273.136 381.612C268.766 381.809 265.402 385.068 265.267 389.482Z" fill="#211715"/>
<path d="M256.954 453.623C261.446 450.213 266.335 447.373 271.519 445.157L269.64 445.95C270.49 445.593 271.345 445.248 272.208 444.924C274.172 444.179 275.814 443.179 276.909 441.307C277.896 439.622 278.316 437.133 277.703 435.245C277.087 433.34 275.906 431.503 274.086 430.543C272.316 429.605 269.975 429.008 268.024 429.749C261.23 432.323 254.807 435.635 249.013 440.035C248.095 440.53 247.36 441.206 246.806 442.061C246.111 442.822 245.642 443.714 245.396 444.737C244.878 446.619 245.111 449.127 246.19 450.799C247.272 452.478 248.885 453.96 250.892 454.416C252.81 454.852 255.312 454.872 256.954 453.623Z" fill="#211715"/>
<path d="M265.91 441.314C270.238 445.442 274.562 449.57 278.891 453.695C280.373 455.108 282.389 456 284.455 456C286.386 456 288.691 455.144 290.019 453.695C291.396 452.197 292.419 450.226 292.324 448.131C292.232 446.072 291.547 444.026 290.019 442.567C285.691 438.438 281.366 434.31 277.038 430.186C275.556 428.772 273.539 427.88 271.474 427.88C269.543 427.88 267.237 428.736 265.91 430.186C264.532 431.684 263.509 433.655 263.605 435.75C263.696 437.809 264.382 439.855 265.91 441.314Z" fill="#211715"/>
<path d="M232.157 389.2C231.704 404.024 231.373 418.854 231.072 433.684C230.99 437.802 234.75 441.74 238.941 441.553C243.276 441.36 246.722 438.097 246.81 433.684C247.112 418.854 247.44 404.027 247.895 389.2C248.02 385.082 244.187 381.144 240.026 381.331C235.655 381.527 232.291 384.787 232.157 389.2Z" fill="#211715"/>
<path d="M223.885 452.203C228.377 448.793 233.266 445.954 238.449 443.737L236.571 444.531C237.42 444.173 238.276 443.829 239.138 443.504C241.102 442.76 242.745 441.76 243.84 439.888C244.827 438.202 245.247 435.714 244.633 433.825C244.017 431.92 242.837 430.084 241.017 429.123C239.246 428.185 236.905 427.589 234.954 428.33C228.16 430.904 221.737 434.215 215.943 438.615C215.025 439.111 214.291 439.786 213.737 440.642C213.042 441.402 212.573 442.294 212.327 443.317C211.809 445.199 212.042 447.708 213.12 449.38C214.202 451.059 215.815 452.541 217.822 452.997C219.74 453.433 222.242 453.452 223.885 452.203Z" fill="#211715"/>
<path d="M232.836 439.898C237.164 444.026 241.489 448.154 245.817 452.279C247.299 453.692 249.315 454.584 251.381 454.584C253.312 454.584 255.617 453.728 256.945 452.279C258.322 450.78 259.345 448.81 259.25 446.714C259.158 444.655 258.473 442.609 256.945 441.15C252.617 437.022 248.292 432.894 243.964 428.769C242.482 427.356 240.466 426.464 238.4 426.464C236.469 426.464 234.164 427.32 232.836 428.769C231.459 430.268 230.436 432.238 230.531 434.333C230.623 436.393 231.308 438.439 232.836 439.898Z" fill="#211715"/>
<path d="M280.7 125.862C281.891 119.98 281.366 113.953 278.569 107.658C272.959 95.034 262.06 87.7812 248.436 89.1452C249.037 78.4069 240.984 68.1474 230.685 65.0227C220.386 61.8586 208.687 65.344 200.791 72.6755C193.981 78.9676 189.853 87.7812 188.371 96.9948C192.853 96.4046 197.332 96.2538 201.664 96.5521C233.846 98.7785 259.483 121.219 267.493 149.64C274.179 141.771 279.068 133.954 280.707 125.862H280.7Z" fill="#F2635F"/>
<path d="M348.851 198.013C325.712 181.232 293.134 179.96 266.444 187.95L276.405 195.537C277.205 177.346 278.166 158.188 271.224 140.941C265.781 127.416 256.456 116.265 244.636 107.812C220.992 90.9058 188.83 87.9647 163.094 101.772C147.143 110.33 134.368 124.675 129.125 142.118C126.204 151.84 141.388 155.994 144.303 146.302C151.549 122.189 177.157 107.451 201.522 108.694C224.028 109.841 245.905 123.55 255.555 144.082C262.988 159.896 261.414 178.596 260.667 195.531C260.444 200.59 265.883 204.541 270.628 203.118C293.671 196.219 320.932 197.111 340.907 211.594C344.349 214.089 349.678 212.184 351.674 208.771C353.999 204.797 352.301 200.508 348.851 198.003V198.013Z" fill="#211715"/>
<path d="M125.872 230.683C127.121 254.196 129.151 278.089 135.955 300.736C142.63 322.954 154.247 343.453 171.17 359.47C212.45 398.541 276.401 411.332 329.381 390.4C358.022 379.085 382.354 359.769 397.207 332.558C402.063 323.665 388.479 315.711 383.617 324.613C359.16 369.415 305.495 390.302 256.141 383.331C231.068 379.79 206.758 369.33 187.4 352.913C171.511 339.437 159.825 322.16 153.038 302.474C145.076 279.397 142.896 254.904 141.607 230.683C141.073 220.608 125.334 220.545 125.872 230.683Z" fill="#211715"/>
<path d="M133.742 150.492C110.252 154.863 89.795 159.293 66.3938 166.28C89.9196 180.884 108.088 190.924 132.4 202.564" fill="#FFDA71"/>
<path d="M131.65 142.902C108.954 147.135 86.4445 152.109 64.3023 158.69C57.7381 160.64 56.6429 169.49 62.4236 173.074C83.8083 186.33 105.741 198.478 128.43 209.358C132.26 211.194 136.929 210.414 139.198 206.535C141.208 203.095 140.224 197.613 136.375 195.767C113.685 184.888 91.7529 172.743 70.3682 159.483L68.4895 173.867C90.6316 167.287 113.141 162.313 135.837 158.08C140.018 157.299 142.392 152.25 141.333 148.401C140.126 144.013 135.844 142.121 131.653 142.905L131.65 142.902Z" fill="#211715"/>
<path d="M195.955 99.09C198.165 86.4533 205.7 74.0985 219.346 71.9509C230.032 70.2688 240.879 77.8463 240.567 89.1452C240.456 93.1487 244.269 97.3554 248.436 97.0144C257.843 96.2439 265.526 100.103 270.169 108.415C276.274 119.343 272.372 129.734 265.683 139.308C263.247 142.794 265.047 148.053 268.506 150.076C272.428 152.371 276.831 150.748 279.274 147.253C289.235 132.993 292.583 116.215 283.759 100.474C276.598 87.6959 263.116 80.0726 248.436 81.2759L256.306 89.1452C256.84 69.6491 238.678 54.3664 219.7 56.1402C198.994 58.0747 184.246 75.0822 180.78 94.9061C180.049 99.0867 181.902 103.385 186.276 104.585C190.073 105.628 195.22 103.297 195.955 99.09Z" fill="#211715"/>
<path d="M181.407 140.541C174.62 140.541 169.928 146.601 169.928 153.693C169.928 161.903 174.367 167.09 181.407 167.09C188.611 167.09 192.886 161.9 192.886 153.693C192.886 146.555 188.171 140.541 181.407 140.541Z" fill="#211715"/>
<path d="M220.553 254.81C219.602 276.614 232.294 297.707 251.269 308.209C270.84 319.042 296.993 318.59 317.561 310.917C321.542 309.432 324.253 305.596 323.056 301.238C322.004 297.415 317.377 294.248 313.377 295.743C297.121 301.805 276.047 303.458 260.204 295.156C245.298 287.346 235.557 271.735 236.294 254.813C236.737 244.685 220.995 244.707 220.556 254.813L220.553 254.81Z" fill="#211715"/>
<path d="M382.328 183.57C389.906 178.776 398.726 176.045 407.648 175.258C412.5 174.828 417.497 174.769 422.337 175.392C425.94 175.858 431.364 176.566 433.885 179.553C437.59 183.94 435.318 191.754 432.78 196.236C428.554 203.699 421.357 208.587 413.717 212.102C406.749 215.309 410.061 227.487 417.688 226.765C427.616 225.831 433.892 233.494 429.603 242.75C424.481 253.806 412.405 260.997 402.736 267.594C395.08 272.82 400.057 283.313 408.799 281.978C414.415 281.119 420.92 283.414 422.688 288.913C424.163 293.5 423.76 298.199 421.989 302.212C416.583 314.462 402.726 319.947 390.135 321.777C385.925 322.387 383.614 327.725 384.64 331.456C385.883 335.974 390.096 337.565 394.319 336.951C412.979 334.243 432.462 323.203 437.971 304.025C440.348 295.753 439.682 285.69 435.062 278.27C428.593 267.882 415.901 265.076 404.618 266.8L410.681 281.185C424.557 271.715 442.784 260.239 446.184 242.333C447.751 234.081 446.05 225.939 440.292 219.67C434.643 213.519 425.973 210.247 417.688 211.027L421.658 225.69C432.183 220.847 442.23 212.902 447.364 202.279C451.955 192.787 453.453 180.101 447.06 170.985C439.436 160.119 423.275 158.785 411.136 159.287C398.323 159.818 385.289 163.08 374.38 169.979C365.842 175.379 373.731 189.003 382.325 183.57H382.328Z" fill="#211715"/>
<path d="M350.966 196.626C350.861 195.656 350.819 194.685 350.874 193.708C350.891 193.396 350.917 191.941 350.888 193.308C350.858 194.675 350.979 193.036 351.065 192.685C351.271 191.832 351.727 190.973 351.878 190.124L351.468 191.098C351.602 190.796 351.743 190.501 351.894 190.206C352.081 189.836 352.278 189.475 352.484 189.114C352.625 188.872 354.002 186.839 353.986 186.822C353.307 187.681 353.156 187.885 353.527 187.429C353.684 187.235 353.845 187.042 354.012 186.855C354.34 186.478 354.681 186.111 355.032 185.753C355.616 185.157 356.245 184.622 356.862 184.058C358.068 182.957 355.586 184.927 356.832 184.078C357.239 183.803 357.639 183.521 358.055 183.262C358.809 182.789 359.596 182.409 360.38 181.989C361.222 181.537 358.721 182.58 360.052 182.13C360.511 181.976 360.963 181.816 361.429 181.681C361.895 181.547 362.367 181.435 362.839 181.34C363.141 181.278 364.57 180.956 363.226 181.252C361.868 181.547 363.534 181.261 363.868 181.248C364.272 181.232 364.675 181.229 365.075 181.238C365.541 181.248 366.056 181.347 366.518 181.327C364.633 181.412 365.501 181.166 366.321 181.337C367.105 181.497 367.849 181.753 368.613 181.979C370.141 182.432 367.177 181.225 368.479 181.927C368.898 182.153 369.315 182.366 369.718 182.619L370.115 182.875C370.79 183.353 370.643 183.225 369.666 182.491C369.728 182.753 370.541 183.275 370.728 183.455C373.682 186.324 378.955 186.619 381.856 183.455C384.706 180.35 385.011 175.389 381.856 172.327C373.505 164.215 360.314 163.579 350.52 169.428C341.395 174.877 334.037 185.655 335.224 196.639C335.457 198.787 335.949 200.623 337.529 202.203C338.893 203.567 341.133 204.597 343.094 204.509C346.979 204.335 351.438 201.023 350.963 196.639L350.966 196.626Z" fill="#211715"/>
</svg>
